<svg width="75" height="18" viewBox="0 0 75 18" fill="none" xmlns="http://www.w3.org/2000/svg">
<path d="M47.1367 0.25V8.68945L47.5791 8.15527L54.0576 0.325195L59.9229 0.325195V8.66602L60.3652 8.13184L66.833 0.325195L74.4678 0.325195L60.0439 17.75H54.127V9.47363L53.6846 10.0088L47.4316 17.5674L47.1367 17.3047V17.6748H41.3408V0.25L47.1367 0.25ZM26.5918 0.25V2.99023L27.0068 2.625L29.7061 0.25L39.3271 0.25V8.70801H33.5312V6.26563H26.5918V11.6494H39.3262V17.665L26.5918 17.665V17.6748H20.7959V0.25L26.5918 0.25ZM6.0459 0.25V2.99219L6.46094 2.62695L9.16113 0.25L18.7715 0.25V6.26563H18.7705V17.6748H12.9756L12.9756 6.26563L6.0459 6.26562L6.0459 17.6748H0.25L0.25 0.25L6.0459 0.25Z" fill="#486AF1" stroke="#486AF1" stroke-width="0.5"/>
</svg>
